<svg xmlns="http://www.w3.org/2000/svg" width="133" height="47" viewBox="0 0 133 47">
    <defs>
        <linearGradient id="a" x1="8.213%" x2="135.694%" y1="49.809%" y2="49.809%">
            <stop offset="0%" stop-color="#2E58A2"/>
            <stop offset="100%" stop-color="#4E91BC"/>
        </linearGradient>
        <radialGradient id="b" cx="50.823%" cy="93.963%" r="120.095%" fx="50.823%" fy="93.963%" gradientTransform="matrix(.68946 0 0 1 .158 0)">
            <stop offset="0%" stop-color="#AE52E5"/>
            <stop offset="52.16%" stop-color="#FED400"/>
            <stop offset="100%" stop-color="#FF3E81"/>
        </radialGradient>
        <linearGradient id="c" x1="-1893.928%" x2="294.009%" y1="48.425%" y2="48.425%">
            <stop offset="0%" stop-color="#2E58A2"/>
            <stop offset="100%" stop-color="#4E91BC"/>
        </linearGradient>
        <linearGradient id="d" x1="-767.13%" x2="352.886%" y1="55.918%" y2="55.918%">
            <stop offset="0%" stop-color="#2E58A2"/>
            <stop offset="100%" stop-color="#4E91BC"/>
        </linearGradient>
        <linearGradient id="e" x1="-846.964%" x2="247.005%" y1="48.647%" y2="48.647%">
            <stop offset="0%" stop-color="#2E58A2"/>
            <stop offset="100%" stop-color="#4E91BC"/>
        </linearGradient>
    </defs>
    <g fill="none" fill-rule="evenodd">
        <path fill="#1B75BC" d="M100.889 14.35v19.051L86.47 15.353h-4.155v27.511h5.352v-17.61l14.23 17.61h4.407V14.351z"/>
        <path fill="#1B75BC" d="M131.615 16.67c-.756-2.257-1.952-4.2-3.463-5.891-1.511-1.692-3.463-3.008-5.793-3.948-2.266-1.003-5.037-1.504-8.122-1.504h-13.348v5.828h5.415V9.776h7.933c2.015 0 3.904.376 5.478 1.065a11.075 11.075 0 0 1 4.155 3.008c1.134 1.254 1.952 2.82 2.519 4.575.567 1.692.818 3.635.818 5.64s-.314 3.885-.818 5.577c-.567 1.755-1.385 3.259-2.519 4.575-1.133 1.316-2.518 2.319-4.155 3.07-1.637.753-3.526 1.129-5.604 1.129h-5.918v4.449h5.918c2.833 0 5.415-.439 7.682-1.316 2.266-.877 4.218-2.13 5.792-3.76 1.574-1.63 2.834-3.572 3.715-5.89.881-2.32 1.322-4.951 1.322-7.834.19-2.695-.189-5.139-1.007-7.395z"/>
        <path fill="url(#a)" d="M19.1 37.725a21.714 21.714 0 0 0 5.478-.501c8.752-1.88 13.726-9.275 22.981-11.28 0-.188.063-.313.063-.501-.692.125-1.322.25-1.889.438l-.252-1.316s.315-.062.819-.125c-10.704 1.567-16.119 9.087-25.626 11.155C6.76 38.603 2.037 27.887 1.156 25.443c.063.438.063.814.125 1.253.063.564.19 1.128.315 1.63.819 3.822 2.645 7.331 5.1 10.214a23.36 23.36 0 0 0 17.693 8.084c11.46 0 20.967-8.21 22.981-19.05-7.555 2.757-12.53 8.271-20.4 9.963-3.022.627-5.603.627-7.87.188z"/>
        <path fill="url(#b)" d="M28.293 28.263c7.933-4.575 14.607-5.64 19.392-5.515v-.501c0-.439-.063-.878-.126-1.316C46.363 9.212 36.415.063 24.326.063 13.307.063 4.052 7.645 1.596 17.86c4.345 9.337 13.411 11.03 23.99 8.021 1.51-.438 2.895-.94 4.28-1.253-1.447.564-2.58 1.253-3.966 1.88-7.24 3.321-15.048 3.196-20.148-.752-3.526-2.757-4.156-6.079-4.219-7.52-.126.69-.252 1.379-.377 2.13a21.46 21.46 0 0 0-.19 2.883c0 .564 0 1.191.064 1.755 6.044 9.024 17.189 9.087 27.263 3.259z"/>
        <path fill="#1B75BC" d="M50.833 26.13v.313c1.637-.126 3.463-.063 5.415.188v-.439c-1.511-.063-3.526-.125-5.415-.063z"/>
        <path fill="#1B75BC" d="M50.833 42.864h5.415V25.881c-1.952 0-3.778.251-5.415.627v16.356z"/>
        <path fill="#1B75BC" d="M71.17 28.513l1.26-.501c2.014-.815 3.526-2.193 4.722-4.073 1.196-1.943 1.763-4.074 1.763-6.455 0-1.441-.315-2.883-.882-4.387a11.982 11.982 0 0 0-2.455-3.885 12.19 12.19 0 0 0-3.652-2.757c-1.385-.69-2.96-1.003-4.596-1.003H50.833v17.672c3.463.501 5.415 1.567 5.415 1.567h.063V9.839H66.89c.881 0 1.7.188 2.518.626.819.376 1.512.94 2.141 1.63.63.689 1.07 1.504 1.448 2.381.378.94.504 1.943.504 3.008 0 1.003-.126 2.005-.44 2.883-.316.94-.756 1.754-1.26 2.381-.567.69-1.196 1.253-1.952 1.692-.818.439-1.637.627-2.581.627H62.48l11.523 17.797h5.981l-8.815-14.35z"/>
        <path fill="#FFF" d="M58.2 25.944c-.693-.125-1.322-.25-2.015-.313v.313H58.2z"/>
        <path fill="url(#c)" d="M13.474 20.367a21.815 21.815 0 0 0-2.707-.752v.564c1.574.062 2.707.188 2.707.188z" transform="translate(45.481 5.013)"/>
        <path fill="url(#d)" d="M3.274 19.113h-.252c-.315 0-.566.063-.818.063s-.504.063-.756.063c-.189 0-.378.062-.567.062-.314.063-.566.126-.818.126l.252 1.316c.566-.188 1.196-.314 1.889-.439.944-.125 2.077-.25 3.148-.313v-1.003c-.756.125-1.448.125-2.078.125z" transform="translate(45.481 5.013)"/>
        <path fill="#1B75BC" d="M50.833 24.127v1.002c1.952-.062 3.904 0 5.415.063v-.564h-.063a27.916 27.916 0 0 0-5.352-.501z"/>
        <path fill="url(#e)" d="M5.352 19.113v1.003c1.952-.063 3.904 0 5.415.063v-.564h-.063a27.916 27.916 0 0 0-5.352-.502z" transform="translate(45.481 5.013)"/>
        <path fill="#FFF" d="M45.544 24.503c.252-.063.567-.126.819-.126-.567.063-.819.126-.819.126z"/>
    </g>
</svg>
